<?xml version="1.0" standalone="no"?>
<!DOCTYPE svg PUBLIC "-//W3C//DTD SVG 20010904//EN"
 "http://www.w3.org/TR/2001/REC-SVG-20010904/DTD/svg10.dtd">
<svg version="1.0" xmlns="http://www.w3.org/2000/svg"
 width="500.000000pt" height="500.000000pt" viewBox="0 0 500.000000 500.000000"
 preserveAspectRatio="xMidYMid meet">
<metadata>
Created by potrace 1.14, written by Peter Selinger 2001-2017
</metadata>
<g transform="translate(0.000000,500.000000) scale(0.100000,-0.100000)"
fill="#000000" stroke="none">
<path d="M1740 4516 c-6 -12 -12 -37 -12 -54 -1 -18 -4 -35 -9 -37 -4 -3 -5
-15 -2 -26 5 -19 3 -20 -14 -10 -11 5 -23 7 -27 4 -3 -3 -6 0 -6 7 0 7 -3 11
-6 7 -4 -3 -13 1 -21 9 -8 8 -19 12 -24 9 -5 -4 -9 -2 -9 4 0 10 -40 8 -58 -3
-6 -3 -9 -15 -7 -26 2 -11 1 -20 -3 -20 -4 0 -8 -12 -8 -27 -1 -16 -4 -37 -7
-48 -2 -11 0 -25 5 -32 7 -9 -8 -11 -61 -8 -38 1 -73 5 -78 8 -5 3 -21 -14
-37 -39 -15 -24 -32 -44 -37 -44 -5 0 -9 -7 -9 -15 0 -8 -4 -15 -9 -15 -18 0
-71 -55 -71 -73 0 -10 -4 -15 -10 -12 -5 3 -15 -5 -21 -18 -6 -14 -22 -30 -35
-37 -28 -16 -39 -41 -22 -52 11 -6 10 -8 0 -8 -7 0 -11 -4 -8 -9 3 -5 -1 -11
-9 -15 -16 -6 -16 -50 -1 -75 5 -8 3 -17 -5 -22 -8 -5 -11 -9 -7 -9 4 0 -4
-12 -17 -26 -13 -14 -24 -29 -23 -33 3 -23 -6 -38 -30 -55 -37 -24 -59 -73
-44 -96 8 -14 6 -22 -9 -38 -10 -12 -19 -28 -19 -37 0 -8 -8 -15 -18 -15 -10
0 -23 -5 -28 -10 -6 -6 -28 -12 -49 -13 -28 -1 -39 -7 -41 -19 -1 -10 2 -18 7
-18 6 0 7 -5 4 -10 -4 -6 -18 -2 -37 11 -23 17 -43 22 -86 20 -31 -1 -61 -6
-66 -11 -6 -6 -18 -10 -27 -10 -20 0 -88 -63 -90 -82 -1 -7 -3 -58 -4 -113 -4
-132 -3 -125 -16 -125 -5 0 -7 5 -4 10 3 6 -1 10 -11 10 -9 0 -24 9 -33 19
-13 15 -29 19 -62 18 -24 -1 -50 -6 -56 -10 -7 -5 -13 -5 -13 -1 0 4 -9 -3
-20 -16 -11 -13 -20 -29 -20 -37 0 -8 -4 -12 -10 -8 -5 3 -18 -3 -28 -13 -11
-11 -31 -22 -45 -26 -15 -3 -37 -18 -49 -32 -13 -14 -35 -39 -50 -55 -16 -17
-28 -36 -28 -43 0 -7 -7 -21 -15 -32 -8 -10 -15 -29 -15 -42 0 -13 -4 -20 -10
-17 -13 8 -23 -38 -18 -76 3 -19 0 -33 -8 -36 -8 -3 -11 -18 -9 -40 2 -20 0
-45 -4 -56 -8 -20 17 -57 38 -57 5 0 11 -12 14 -27 5 -27 52 -64 87 -70 8 -1
16 -7 18 -13 2 -5 8 -8 13 -4 5 3 9 -13 9 -35 0 -23 4 -41 8 -41 5 0 14 -17
20 -38 8 -26 21 -43 38 -51 15 -6 24 -14 21 -18 -11 -11 52 -77 74 -78 12 0
27 -9 33 -20 6 -11 16 -23 21 -27 7 -5 7 -8 0 -8 -5 0 -3 -5 5 -10 8 -5 19
-24 25 -41 10 -28 8 -36 -7 -51 -21 -21 -23 -54 -3 -88 8 -14 14 -21 15 -17 0
12 30 -20 30 -32 0 -6 4 -11 8 -11 18 0 38 -65 31 -100 -4 -19 -3 -42 2 -52 5
-10 7 -18 4 -18 -4 0 0 -7 9 -15 8 -8 20 -15 26 -15 13 0 58 -45 83 -84 22
-33 27 -86 10 -104 -10 -10 -10 -17 0 -33 8 -13 9 -22 2 -27 -22 -15 -56 -85
-46 -95 6 -6 6 -19 1 -32 -5 -13 -6 -26 -2 -30 4 -4 8 -10 8 -13 6 -26 18 -52
25 -52 4 0 6 -9 4 -20 -2 -11 1 -20 7 -20 6 0 8 -9 5 -20 -3 -13 0 -20 9 -20
8 0 14 -6 12 -14 -3 -16 38 -56 58 -56 7 0 14 -3 16 -7 2 -5 18 -20 36 -35 28
-23 37 -26 59 -17 21 8 29 7 35 -5 6 -11 15 -13 31 -6 44 17 62 23 72 24 6 1
10 6 10 11 0 14 15 35 24 35 5 0 11 -10 14 -22 6 -21 6 -21 33 -3 19 12 29 14
32 6 2 -6 8 -9 13 -5 5 3 9 -2 9 -11 0 -8 8 -19 18 -22 9 -4 20 -11 24 -17 4
-6 12 -5 22 3 14 12 16 11 15 -5 -5 -51 3 -85 24 -106 13 -13 23 -32 21 -41
-1 -9 2 -17 7 -17 5 0 9 -7 9 -16 0 -8 4 -13 9 -10 4 3 26 -8 47 -24 21 -16
48 -30 59 -30 11 0 33 -12 48 -26 15 -14 40 -28 55 -30 14 -3 32 -10 39 -16 7
-6 13 -8 13 -4 0 3 17 -1 38 -9 20 -8 56 -16 79 -18 24 -2 46 -6 49 -10 4 -3
16 -1 28 5 41 22 105 25 117 6 7 -10 9 -10 9 0 0 6 9 12 20 12 11 0 20 5 20
11 0 5 5 7 10 4 6 -3 10 3 10 14 0 11 5 23 10 26 7 4 7 12 0 25 -15 29 9 38
31 12 9 -12 22 -22 27 -22 5 0 13 -7 16 -16 3 -8 10 -12 16 -9 5 3 10 1 10 -5
0 -6 6 -10 13 -8 6 1 24 -8 40 -22 27 -24 41 -29 87 -34 55 -5 140 64 140 115
0 15 5 31 10 34 6 4 4 12 -5 21 -15 16 -11 39 5 29 5 -3 20 -1 32 6 13 6 20 8
16 4 -4 -4 0 -14 10 -22 9 -7 13 -13 7 -12 -25 3 -46 -2 -41 -10 3 -5 -2 -12
-11 -15 -15 -6 -15 -8 1 -24 16 -16 18 -16 36 5 10 13 24 23 32 23 8 0 19 5
26 12 8 8 15 8 28 -3 9 -8 18 -12 18 -10 3 11 75 -12 80 -25 6 -15 17 -14 65
4 9 3 12 1 7 -6 -3 -6 3 -17 14 -25 11 -7 17 -17 13 -20 -5 -6 28 -12 50 -8 4
0 7 -3 7 -8 0 -5 8 -8 17 -7 11 2 24 -9 34 -28 11 -20 25 -32 42 -34 14 -2 29
-11 32 -21 5 -18 40 -21 64 -6 6 3 11 1 11 -5 0 -6 11 -8 25 -6 14 3 25 0 25
-5 0 -5 22 -7 51 -5 29 3 56 3 62 -1 6 -3 24 -7 41 -8 17 0 36 -4 42 -8 11 -6
54 43 54 62 0 5 9 12 19 16 11 3 22 12 25 20 3 8 11 12 18 10 12 -5 38 35 38
59 0 6 9 22 20 36 18 23 19 23 14 3 -4 -13 2 -33 17 -52 20 -28 27 -30 73 -28
30 2 56 -2 64 -10 7 -7 19 -10 27 -6 9 3 22 -1 31 -8 9 -7 26 -15 37 -16 12
-2 26 -8 31 -13 6 -6 21 -10 35 -10 32 0 131 -31 131 -42 0 -4 11 -8 25 -8 14
0 25 -4 25 -9 0 -5 11 -11 25 -13 14 -3 25 -2 25 3 0 4 10 9 23 11 12 2 21 9
20 16 -2 6 1 12 5 12 5 0 9 7 9 15 0 8 -5 15 -10 15 -6 0 -2 9 8 20 10 11 14
20 9 20 -12 0 -9 78 3 110 7 16 7 27 1 31 -5 3 -9 9 -9 13 3 18 -1 24 -21 34
-21 10 -19 11 19 11 23 1 45 -4 48 -9 4 -7 12 -7 24 0 10 5 21 6 25 3 3 -3 6
-1 6 5 0 13 67 34 119 38 51 4 61 11 61 39 0 14 4 25 10 25 5 0 12 16 16 35 3
19 10 33 14 30 8 -5 42 57 46 84 2 8 9 18 16 22 7 5 9 9 5 9 -4 0 3 19 17 43
19 33 22 46 14 61 -6 11 -7 21 -1 25 12 8 11 30 -2 39 -5 4 -10 14 -10 22 0 8
-5 14 -12 13 -8 -2 -7 8 3 33 19 46 15 94 -11 117 -11 10 -15 16 -10 14 6 -3
21 3 35 13 19 15 22 21 12 32 -6 8 -10 17 -7 19 2 3 7 20 10 39 4 19 8 42 10
50 2 8 4 19 4 24 1 5 4 7 7 3 3 -3 16 5 28 17 11 13 33 26 49 30 28 7 35 20
17 31 -21 13 -8 20 38 21 54 2 120 24 137 48 7 9 16 16 21 16 12 0 38 35 35
45 -2 4 2 11 7 14 19 12 19 65 1 96 -16 26 -25 55 -28 88 -1 4 -10 16 -21 27
-11 11 -15 20 -10 20 7 0 7 6 0 20 -7 14 -7 20 0 20 5 0 10 -5 10 -11 0 -6 7
-9 15 -5 8 3 27 1 41 -4 50 -19 153 46 141 90 -3 13 1 24 14 30 10 6 19 17 19
25 0 8 9 19 21 25 20 11 49 65 56 104 2 11 7 24 12 30 5 6 7 38 6 71 -1 33 3
68 9 77 8 13 6 22 -7 36 -9 10 -14 22 -10 25 3 4 1 7 -5 7 -8 0 -10 12 -6 35
4 25 1 40 -11 52 -9 9 -14 24 -12 33 4 17 -27 40 -54 40 -5 0 -21 11 -35 25
-20 20 -35 25 -79 25 -65 0 -85 7 -85 29 0 19 -81 91 -103 91 -8 0 -26 9 -41
21 -14 11 -30 17 -36 14 -5 -3 -10 -2 -10 3 0 14 -35 21 -52 11 -11 -6 -25 -1
-44 16 -16 14 -35 25 -41 25 -19 0 -50 34 -47 51 1 8 5 22 9 32 4 10 3 17 -4
17 -6 0 -10 3 -9 8 5 25 -46 70 -74 64 -5 -1 -8 2 -8 7 0 5 -9 13 -20 16 -11
4 -18 10 -15 15 3 5 -3 11 -13 14 -21 7 -46 50 -51 86 0 6 -8 10 -16 10 -8 0
-15 5 -15 10 0 6 -16 10 -35 10 -35 0 -63 11 -99 40 -10 8 -21 13 -24 11 -13
-7 -41 63 -35 87 5 20 3 24 -10 19 -10 -4 -17 1 -20 14 -3 10 -1 17 4 13 5 -3
9 7 10 23 0 15 2 38 3 51 2 12 -3 27 -11 33 -7 6 -13 19 -13 28 0 19 -29 53
-65 77 -14 9 -25 23 -25 30 0 8 -3 14 -7 14 -5 0 -21 11 -37 25 -16 14 -34 25
-40 26 -6 1 -18 2 -26 3 -8 2 -28 3 -43 4 -16 1 -26 6 -23 10 9 16 -52 7 -71
-10 -12 -11 -23 -14 -32 -8 -9 5 -23 3 -36 -6 -23 -15 -59 -9 -49 7 3 5 -2 9
-10 9 -9 0 -16 4 -16 9 0 5 -8 8 -17 6 -10 -1 -24 2 -31 8 -8 7 -16 7 -20 1
-4 -5 -13 -9 -19 -10 -30 -2 -34 -5 -28 -14 3 -5 2 -10 -4 -10 -5 0 -13 5 -16
10 -4 6 -14 8 -24 5 -10 -3 -22 3 -31 15 -8 11 -20 20 -28 20 -7 0 -10 5 -7
10 3 6 1 10 -5 10 -6 0 -8 5 -5 11 17 26 -56 129 -91 129 -6 0 -18 8 -28 18
-9 11 -34 25 -56 32 -22 7 -40 17 -40 22 0 5 -4 7 -9 4 -4 -3 -22 -1 -39 4
-18 4 -34 5 -37 1 -4 -8 -36 -7 -60 0 -18 6 -57 -22 -51 -36 10 -26 -13 -26
-36 0 -12 14 -27 25 -34 25 -6 0 -14 7 -18 15 -3 8 -12 15 -21 15 -8 0 -15 4
-15 9 0 6 -15 5 -37 -1 -37 -10 -73 -41 -73 -61 0 -6 -3 -8 -6 -5 -3 4 -20 0
-38 -7 -29 -12 -36 -11 -76 9 -25 13 -50 21 -57 19 -6 -2 -17 5 -23 16 -6 12
-19 21 -30 21 -10 0 -22 9 -25 20 -3 11 -10 20 -15 20 -5 0 -15 7 -23 15 -13
13 -41 21 -102 30 -46 7 -89 16 -96 20 -3 3 -12 -2 -19 -10 -6 -7 -19 -11 -28
-7 -23 8 -92 79 -85 86 4 3 2 6 -4 6 -6 0 -25 15 -42 32 -39 40 -83 46 -101
14z m-866 -1071 c-4 -8 -10 -12 -15 -9 -11 6 -2 24 11 24 5 0 7 -7 4 -15z
m3561 -1585 c-3 -5 -2 -10 3 -10 5 0 9 -7 9 -15 0 -8 -5 -15 -12 -15 -6 0 -21
-9 -32 -19 -21 -20 -21 -20 -26 0 -3 12 0 19 10 19 8 0 11 5 8 10 -3 6 0 10 7
10 10 0 10 2 -1 9 -11 7 -10 10 5 14 31 8 35 7 29 -3z"/>
</g>
</svg>
